<?xml version="1.0" encoding="iso-8859-1"?>
<!-- Generator: Adobe Illustrator 20.1.0, SVG Export Plug-In . SVG Version: 6.00 Build 0)  -->
<svg version="1.1" id="&#x421;&#x43B;&#x43E;&#x439;_1"
	 xmlns="http://www.w3.org/2000/svg" xmlns:xlink="http://www.w3.org/1999/xlink" x="0px" y="0px" viewBox="0 0 92.014 92.018"
	 style="enable-background:new 0 0 92.014 92.018;" xml:space="preserve">
<g>
	<path style="fill:#020203;" d="M46.007,18.142c-15.39,0-27.867,12.476-27.867,27.867s12.476,27.867,27.867,27.867
		s27.867-12.476,27.867-27.867C73.856,30.626,61.39,18.16,46.007,18.142z M46.007,71.342c-13.991,0-25.333-11.342-25.333-25.333
		s11.342-25.333,25.333-25.333S71.34,32.018,71.34,46.009C71.324,59.993,59.992,71.326,46.007,71.342z"/>
	<path style="fill:#020203;" d="M46.007,24.475c-11.893,0-21.533,9.641-21.533,21.533s9.641,21.533,21.533,21.533
		S67.54,57.901,67.54,46.009C67.527,34.122,57.894,24.489,46.007,24.475z M64.921,44.311l-7.933-0.641
		c-0.697-0.059-1.215-0.671-1.156-1.368c0.028-0.33,0.184-0.637,0.435-0.853l6.028-5.172C63.768,38.722,64.666,41.469,64.921,44.311
		z M50.236,27.5l-3.06,7.347c-0.269,0.646-1.011,0.951-1.657,0.682c-0.308-0.128-0.553-0.374-0.682-0.682l-3.06-7.347
		C44.559,26.845,47.455,26.845,50.236,27.5z M29.716,36.274l6.031,5.174c0.531,0.455,0.593,1.255,0.137,1.786
		c-0.217,0.254-0.526,0.411-0.859,0.438l-7.933,0.641c0.255-2.844,1.154-5.594,2.628-8.04H29.716z M31.714,58.49l6.779-4.136
		c0.597-0.365,1.377-0.176,1.741,0.421c0.174,0.285,0.229,0.628,0.151,0.953l-1.839,7.749c-2.621-1.131-4.954-2.836-6.829-4.988
		H31.714z M40.949,64.306l1.9-7.99c0.485-2.042-0.776-4.09-2.818-4.576c-0.975-0.232-2.002-0.069-2.858,0.453l-7.01,4.279
		c-1.893-2.862-2.969-6.187-3.113-9.615l8.18-0.661c2.092-0.172,3.648-2.006,3.477-4.098c-0.082-0.997-0.554-1.922-1.313-2.574
		l-6.232-5.345c2.141-2.679,4.966-4.731,8.176-5.939l3.157,7.578c0.807,1.937,3.031,2.854,4.969,2.047
		c0.926-0.386,1.662-1.121,2.047-2.047l3.158-7.578c3.21,1.209,6.035,3.26,8.176,5.939l-6.224,5.345
		c-1.593,1.367-1.776,3.766-0.41,5.358c0.652,0.76,1.578,1.232,2.577,1.313l8.18,0.661c-0.144,3.429-1.221,6.753-3.113,9.615
		l-7.019-4.28c-1.791-1.093-4.13-0.527-5.223,1.264c-0.522,0.856-0.685,1.884-0.453,2.86l1.9,7.99
		c-3.304,0.937-6.804,0.937-10.108,0H40.949z M53.464,63.479l-1.843-7.749c-0.162-0.681,0.258-1.364,0.939-1.526
		c0.325-0.077,0.668-0.023,0.953,0.151l6.779,4.136c-1.874,2.152-4.206,3.856-6.825,4.988H53.464z"/>
	<path style="fill:#020203;" d="M51.074,46.009c0-2.798-2.268-5.067-5.067-5.067c-2.798,0-5.067,2.268-5.067,5.067
		s2.268,5.067,5.067,5.067C48.805,51.075,51.074,48.807,51.074,46.009z M46.007,48.542c-1.399,0-2.533-1.134-2.533-2.533
		c0-1.399,1.134-2.533,2.533-2.533c1.399,0,2.533,1.134,2.533,2.533C48.54,47.408,47.406,48.542,46.007,48.542z"/>
</g>
<path style="fill:#020203;" d="M91.281,46.009l0.312-0.383c0.286-0.358,0.434-0.806,0.418-1.263
	c-0.168-4.923-1.127-9.786-2.843-14.404c-0.16-0.429-0.469-0.787-0.87-1.008l-0.464-0.257l0.142-0.496
	c0.128-0.441,0.093-0.913-0.098-1.33c-2.052-4.48-4.81-8.601-8.168-12.207c-0.313-0.335-0.735-0.547-1.19-0.598l-0.477-0.065
	c0,0,0-0.01,0-0.013l-0.015-0.01l-0.054-0.479c-0.051-0.456-0.263-0.878-0.598-1.19c-3.606-3.358-7.727-6.115-12.207-8.166
	c-0.417-0.193-0.889-0.228-1.33-0.1l-0.495,0.144L63.089,3.72c-0.221-0.402-0.58-0.712-1.01-0.872
	c-4.621-1.716-9.489-2.676-14.415-2.845c-0.462-0.025-0.917,0.125-1.273,0.422l-0.383,0.312l-0.383-0.312
	c-0.355-0.298-0.81-0.449-1.273-0.422c-4.923,0.168-9.787,1.127-14.406,2.841c-0.43,0.16-0.789,0.47-1.01,0.872L28.68,4.178
	l-0.5-0.138c-0.441-0.129-0.914-0.093-1.33,0.1c-4.48,2.051-8.601,4.808-12.207,8.166c-0.335,0.313-0.547,0.735-0.598,1.19
	l-0.05,0.479l-0.015,0.01c0,0,0,0,0,0.013l-0.481,0.054c-0.456,0.051-0.878,0.263-1.19,0.598C8.95,18.256,6.192,22.377,4.14,26.857
	c-0.191,0.417-0.225,0.889-0.098,1.33l0.142,0.496l-0.468,0.265c-0.401,0.221-0.71,0.579-0.87,1.008
	c-1.715,4.615-2.676,9.477-2.845,14.398c-0.017,0.46,0.132,0.911,0.42,1.271l0.312,0.383l-0.312,0.383
	c-0.288,0.359-0.437,0.811-0.42,1.271c0.168,4.923,1.127,9.786,2.843,14.404c0.162,0.427,0.471,0.783,0.872,1.003l0.464,0.257
	l-0.144,0.51c-0.127,0.44-0.093,0.912,0.098,1.328c2.051,4.481,4.809,8.603,8.168,12.209c0.313,0.335,0.735,0.547,1.19,0.598
	l0.481,0.054c0,0,0,0.01,0,0.013l0.015,0.01l0.054,0.479c0.051,0.456,0.263,0.878,0.598,1.19c3.606,3.358,7.727,6.115,12.207,8.166
	c0.417,0.191,0.889,0.227,1.33,0.1l0.495-0.144l0.255,0.462c0.221,0.402,0.58,0.712,1.01,0.872
	c4.621,1.714,9.487,2.674,14.413,2.841c0.459,0.026,0.912-0.123,1.265-0.418l0.383-0.312l0.383,0.312
	c0.34,0.272,0.761,0.42,1.196,0.42h0.069c4.923-0.168,9.787-1.127,14.406-2.841c0.43-0.16,0.789-0.47,1.01-0.872l0.255-0.462
	l0.495,0.144c0.441,0.127,0.913,0.092,1.33-0.1c4.48-2.051,8.601-4.808,12.207-8.166c0.335-0.313,0.547-0.735,0.598-1.19
	l0.054-0.479l0.015-0.01c0,0,0,0,0-0.013l0.481-0.054c0.456-0.051,0.878-0.263,1.19-0.598c3.359-3.606,6.117-7.728,8.168-12.209
	c0.19-0.417,0.225-0.888,0.098-1.328l-0.142-0.496l0.464-0.257c0.401-0.221,0.71-0.579,0.87-1.008
	c1.724-4.619,2.692-9.486,2.866-14.413c0.016-0.457-0.132-0.906-0.418-1.263L91.281,46.009z M85.816,60.069l-0.784,0.433
	l-1.746-0.874c-0.947-0.474-2.099-0.09-2.572,0.857c-0.474,0.947-0.09,2.099,0.857,2.572l0,0l1.917,0.958
	c0.189,0.079,0.39,0.126,0.594,0.14l0.013,0.044c-1.744,3.649-4.003,7.028-6.709,10.033l-0.383,0.044l-0.872-0.872
	c-0.736-0.761-1.949-0.782-2.711-0.047c-0.761,0.736-0.782,1.949-0.047,2.711c0.015,0.016,0.031,0.032,0.047,0.047l0.872,0.872
	l-0.044,0.383c-3.005,2.707-6.384,4.966-10.033,6.709h-0.023c-0.02-0.208-0.075-0.412-0.163-0.602l-0.958-1.917
	c-0.481-0.943-1.635-1.318-2.578-0.838c-0.933,0.475-1.312,1.611-0.851,2.551l0.872,1.746l-0.431,0.786
	c-3.814,1.342-7.801,2.128-11.839,2.333l-0.318-0.236v-1.641c0-1.059-0.858-1.917-1.917-1.917s-1.917,0.858-1.917,1.917v1.643
	l-0.305,0.243c-4.038-0.205-8.025-0.991-11.839-2.333l-0.431-0.786l0.872-1.746c0.466-0.951,0.073-2.099-0.878-2.565
	c-0.94-0.461-2.076-0.082-2.551,0.851L28,83.488c-0.087,0.19-0.142,0.392-0.163,0.6h-0.023c-3.649-1.743-7.028-4.003-10.033-6.709
	l-0.044-0.383l0.872-0.872c0.761-0.735,0.783-1.949,0.047-2.711s-1.949-0.783-2.711-0.047c-0.016,0.015-0.032,0.031-0.047,0.047
	l-0.872,0.872l-0.383-0.044c-2.706-3.005-4.965-6.384-6.709-10.033l0.013-0.044c0.204-0.014,0.405-0.061,0.594-0.14l1.917-0.958
	c0.947-0.474,1.331-1.625,0.857-2.572c-0.474-0.947-1.626-1.331-2.572-0.857l0,0L6.996,60.51l-0.784-0.433
	c-1.344-3.813-2.13-7.799-2.335-11.837l0.23-0.314h1.645c1.059,0,1.917-0.858,1.917-1.917s-0.858-1.917-1.917-1.917H4.107
	l-0.243-0.305c0.205-4.037,0.991-8.024,2.335-11.837l0.784-0.433l1.746,0.882c0.947,0.474,2.099,0.09,2.572-0.857
	c0.474-0.947,0.09-2.099-0.857-2.572l-1.917-0.958c-0.19-0.087-0.394-0.141-0.602-0.161v-0.021
	c1.744-3.649,4.003-7.029,6.709-10.035l0.383-0.044l0.872,0.872c0.751,0.751,1.969,0.75,2.719-0.001
	c0.751-0.751,0.75-1.969-0.001-2.719l0,0l-0.872-0.872l0.044-0.383c3.005-2.707,6.384-4.966,10.033-6.709h0.023
	c0.021,0.208,0.076,0.41,0.163,0.6l0.958,1.917c0.481,0.943,1.635,1.318,2.578,0.838c0.933-0.475,1.312-1.611,0.851-2.551
	l-0.872-1.746l0.431-0.786c3.814-1.342,7.801-2.128,11.839-2.333l0.305,0.238v1.641c0,1.059,0.858,1.917,1.917,1.917
	s1.917-0.858,1.917-1.917V4.113l0.305-0.243c4.038,0.205,8.025,0.991,11.839,2.333l0.431,0.786l-0.872,1.746
	c-0.466,0.951-0.073,2.099,0.878,2.565c0.94,0.461,2.076,0.082,2.551-0.851l0.958-1.917c0.087-0.19,0.142-0.392,0.163-0.6h0.023
	c3.649,1.743,7.028,4.003,10.033,6.709l0.044,0.383l-0.872,0.872c-0.761,0.735-0.783,1.949-0.047,2.711
	c0.736,0.761,1.949,0.783,2.711,0.047c0.016-0.015,0.032-0.031,0.047-0.047l0.872-0.872l0.383,0.044
	c2.706,3.006,4.965,6.386,6.709,10.035v0.021c-0.208,0.02-0.412,0.074-0.602,0.161l-1.917,0.958
	c-0.951,0.476-1.337,1.633-0.861,2.584c0.476,0.951,1.633,1.337,2.584,0.861l1.746-0.874l0.784,0.433
	c1.344,3.813,2.13,7.799,2.335,11.837l-0.243,0.297h-1.645c-1.059,0-1.917,0.858-1.917,1.917s0.858,1.917,1.917,1.917h1.645
	l0.243,0.305C87.946,52.269,87.159,56.256,85.816,60.069L85.816,60.069z"/>
</svg>
