<?xml version="1.0" encoding="iso-8859-1"?>
<!-- Generator: Adobe Illustrator 20.1.0, SVG Export Plug-In . SVG Version: 6.00 Build 0)  -->
<svg version="1.1" id="Capa_1" xmlns="http://www.w3.org/2000/svg" xmlns:xlink="http://www.w3.org/1999/xlink" x="0px" y="0px"
	 viewBox="-49 141 512 512" style="enable-background:new -49 141 512 512;" xml:space="preserve">
<path style="stroke:#000000;stroke-width:6;stroke-miterlimit:10;" d="M443.952,403.818c-2.616-4.205-2.616-9.43,0-13.636
	l11.417-18.349c7.421-11.927,4.682-27.46-6.371-36.13l-17.004-13.338c-3.897-3.056-5.684-7.966-4.663-12.813l4.452-21.148
	c2.894-13.746-4.992-27.406-18.344-31.773l-20.54-6.718c-4.708-1.54-8.066-5.542-8.765-10.445l-3.049-21.395
	c-1.981-13.907-14.089-24.029-28.104-23.583l-21.6,0.712c-4.953,0.167-9.475-2.45-11.809-6.818l-10.183-19.062
	c-6.619-12.39-21.44-17.785-34.475-12.548l-20.053,8.057c-4.596,1.845-9.741,0.939-13.428-2.368l-16.089-14.428l0,0
	c-10.458-9.38-26.23-9.38-36.688,0l-16.088,14.43c-3.687,3.307-8.831,4.214-13.428,2.367l-20.053-8.057
	c-13.035-5.235-27.856,0.158-34.475,12.548l-10.183,19.061c-2.334,4.368-6.856,6.981-11.809,6.818l-21.6-0.712
	c-14.05-0.447-26.123,9.676-28.104,23.583l-3.049,21.395c-0.699,4.903-4.057,8.906-8.765,10.445l-20.54,6.718
	c-13.352,4.367-21.238,18.026-18.344,31.773l4.452,21.148c1.02,4.847-0.767,9.756-4.664,12.813l-17.004,13.338
	c-11.053,8.67-13.792,24.203-6.371,36.13l11.417,18.349c2.616,4.205,2.616,9.43,0,13.636l-11.416,18.349
	c-7.421,11.927-4.682,27.46,6.371,36.13l17.004,13.339c3.897,3.056,5.684,7.966,4.663,12.813l-4.452,21.148
	c-2.894,13.746,4.992,27.406,18.344,31.773l20.54,6.718c4.708,1.54,8.066,5.542,8.765,10.445l3.049,21.395
	c1.982,13.908,14.094,24.027,28.104,23.583l21.6-0.712c4.957-0.158,9.475,2.449,11.809,6.818l10.183,19.062
	c6.619,12.39,21.441,17.785,34.475,12.548l20.053-8.057c4.595-1.847,9.74-0.94,13.428,2.368l16.088,14.429
	C193.886,650.656,200.442,653,207,653c6.557,0,13.116-2.345,18.344-7.035l16.088-14.43c3.687-3.307,8.834-4.214,13.428-2.367
	l20.053,8.057c13.036,5.236,27.857-0.157,34.475-12.548l10.183-19.061c2.334-4.369,6.851-6.98,11.809-6.818l21.6,0.712
	c14.04,0.457,26.123-9.676,28.104-23.583l3.049-21.395c0.699-4.903,4.057-8.906,8.765-10.445l20.54-6.718
	c13.352-4.367,21.238-18.026,18.344-31.773l-4.452-21.148c-1.02-4.847,0.767-9.756,4.664-12.813l17.004-13.339
	c11.053-8.67,13.792-24.203,6.371-36.13L443.952,403.818z M440.006,446.835l-17.003,13.338c-8.297,6.507-12.101,16.959-9.929,27.277
	l4.452,21.148c1.36,6.458-2.345,12.874-8.617,14.925l-20.54,6.718c-10.022,3.278-17.171,11.799-18.658,22.236l-3.049,21.395
	c-0.931,6.533-6.609,11.296-13.202,11.078l-21.6-0.712c-10.549-0.341-20.171,5.214-25.138,14.514l-10.183,19.061
	c-3.109,5.82-10.071,8.356-16.195,5.895l-20.053-8.057c-9.783-3.929-20.737-1.999-28.586,5.041l-16.088,14.43
	c-4.912,4.406-12.321,4.406-17.233,0l-16.088-14.429c-5.159-4.627-11.657-7.047-18.284-7.047c-3.457,0-6.949,0.659-10.303,2.006
	l-20.053,8.057c-6.124,2.46-13.086-0.074-16.195-5.894l-10.183-19.062c-4.968-9.299-14.615-14.85-25.138-14.514l-21.6,0.712
	c-6.606,0.214-12.271-4.545-13.202-11.078l-3.049-21.395c-1.487-10.438-8.637-18.958-18.658-22.236l-20.54-6.718
	c-6.272-2.051-9.976-8.468-8.617-14.925l4.452-21.148c2.172-10.317-1.632-20.769-9.928-27.276l-17.004-13.338
	c-5.192-4.073-6.478-11.37-2.992-16.973l11.417-18.349c5.57-8.952,5.57-20.075,0-29.027l-11.417-18.349
	c-3.486-5.603-2.199-12.899,2.992-16.972l17.003-13.338c8.297-6.507,12.101-16.959,9.929-27.277l-4.452-21.147
	c-1.36-6.458,2.345-12.874,8.617-14.925l20.54-6.718c10.022-3.278,17.171-11.799,18.658-22.236l3.049-21.395
	c0.931-6.533,6.605-11.282,13.202-11.078l21.6,0.712c10.531,0.331,20.17-5.215,25.138-14.514l10.183-19.061
	c3.11-5.82,10.071-8.356,16.195-5.895l20.053,8.057c9.783,3.929,20.736,1.999,28.586-5.041l16.088-14.43
	c4.912-4.406,12.321-4.406,17.233,0l16.088,14.429c7.849,7.04,18.803,8.971,28.586,5.041l20.053-8.057
	c6.121-2.462,13.085,0.074,16.195,5.894l10.183,19.062c4.968,9.299,14.605,14.854,25.138,14.514l21.6-0.712
	c6.59-0.215,12.271,4.544,13.202,11.078l3.049,21.395c1.487,10.438,8.637,18.958,18.658,22.236l20.54,6.718
	c6.272,2.051,9.976,8.468,8.617,14.925l-4.452,21.147c-2.172,10.317,1.632,20.769,9.928,27.276l17.004,13.338
	c5.192,4.073,6.478,11.37,2.992,16.973l-11.417,18.349c-5.57,8.952-5.57,20.075,0,29.027l11.417,18.349
	C446.485,435.466,445.198,442.762,440.006,446.835z"/>
<path d="M267.254,501.79c21.967,0,39.02-9.539,39.02-35.552V423.46c0-26.014-17.053-35.552-39.02-35.552
	c-22.256,0-39.02,9.538-39.02,35.552v42.778C228.234,492.251,244.998,501.79,267.254,501.79z M249.333,423.46
	c0-11.851,6.649-17.053,17.921-17.053s18.209,5.202,18.209,17.053v42.778c0,11.851-6.937,17.053-18.209,17.053
	c-11.272,0-17.921-5.202-17.921-17.053L249.333,423.46L249.333,423.46z"/>
<path d="M178.519,367.964v-42.778c0-26.013-17.054-35.552-39.02-35.552c-22.256,0-39.021,9.539-39.021,35.552v42.778
	c0,26.014,16.765,35.552,39.021,35.552C161.465,403.516,178.519,393.978,178.519,367.964z M157.708,367.964
	c0,11.851-6.937,17.053-18.209,17.053c-11.273,0-17.921-5.202-17.921-17.053v-42.778c0-11.851,6.648-17.053,17.921-17.053
	c11.272,0,18.209,5.202,18.209,17.053V367.964z"/>
<path d="M151.349,511.039c4.047,0,8.093-2.023,9.828-5.492L267.254,293.97c0.578-1.446,0.867-2.891,0.867-4.625
	c0-6.648-6.358-10.983-12.139-10.983c-3.469,0-6.937,1.445-8.672,5.202L141.232,496.009c-0.867,1.445-1.156,2.891-1.156,4.336
	C140.076,505.547,144.701,511.039,151.349,511.039z"/>
</svg>
