<?xml version="1.0" encoding="iso-8859-1"?>
<!-- Generator: Adobe Illustrator 20.1.0, SVG Export Plug-In . SVG Version: 6.00 Build 0)  -->
<svg version="1.1" id="&#x421;&#x43B;&#x43E;&#x439;_1"
	 xmlns="http://www.w3.org/2000/svg" xmlns:xlink="http://www.w3.org/1999/xlink" x="0px" y="0px" viewBox="0 0 416 408.641"
	 style="enable-background:new 0 0 416 408.641;" xml:space="preserve">
<g>
	<path d="M341.508,234.848l-131.395-59.785c-1.343-0.614-2.886-0.614-4.23,0L74.492,234.848c-1.824,0.828-2.996,2.644-2.996,4.652
		c0,2.004,1.172,3.824,2.996,4.652l131.391,59.782c0.672,0.304,1.39,0.457,2.113,0.457c0.727,0,1.442-0.153,2.117-0.457
		l131.395-59.782c1.82-0.828,2.996-2.648,2.996-4.652C344.504,237.492,343.328,235.676,341.508,234.848L341.508,234.848z
		 M207.996,185.332l107.816,49.055H100.188L207.996,185.332z M207.996,293.664l-107.808-49.051h215.624L207.996,293.664z
		 M207.996,293.664"/>
	<path d="M400.688,215.481l-170.766-77.7V93.086h87.32c2.824,0,5.113-2.293,5.113-5.109V5.113c0-2.824-2.289-5.113-5.113-5.113
		h-28.109c-2.824,0-5.11,2.289-5.11,5.113v51.754H131.734V5.113c0-2.824-2.285-5.113-5.113-5.113H98.508
		c-2.824,0-5.11,2.289-5.11,5.113v82.864c0,2.816,2.286,5.109,5.11,5.109h87.57v44.695l-170.766,77.7
		c-8.82,4.011-14.648,12.582-15.238,22.687c-0.035,0.426-0.07,0.852-0.074,1.391c0.004,0.422,0.039,0.843,0.105,1.586
		c0.559,9.789,6.383,18.359,15.207,22.371l178.098,81.035H95.574c-2.828,0-5.113,2.289-5.113,5.109v53.868
		c0,2.824,2.285,5.113,5.113,5.113h224.848c2.828,0,5.113-2.289,5.113-5.113V349.66c0-2.82-2.285-5.109-5.113-5.109H222.59
		l178.098-81.035c8.82-4.02,14.648-12.586,15.238-22.688c0.035-0.426,0.07-0.847,0.074-1.269c0-0.039,0-0.078,0-0.117
		c-0.004-0.422-0.039-0.848-0.105-1.594C415.336,228.063,409.508,219.492,400.688,215.481L400.688,215.481z M315.312,398.418
		H100.684V354.77h214.628V398.418z M103.621,10.223h17.887v51.758c0,2.82,2.289,5.109,5.113,5.109h162.512
		c2.828,0,5.113-2.289,5.113-5.109V10.223h17.883v72.64H103.621V10.223z M219.699,93.086v40.121
		c-6.933-2.769-16.355-2.769-23.398,0.008V93.086H219.699z M405.742,239.914c-0.004,0.051-0.051,0.594-0.051,0.649
		c-0.343,5.98-3.882,11.215-9.234,13.648L216.145,336.25c-2.766,1.262-5.59,2.547-7.676,2.371c-0.313-0.031-0.625-0.031-0.946,0
		c-2.031,0.176-4.914-1.113-8.039-2.539L19.543,254.211c-5.352-2.433-8.887-7.664-9.234-13.695
		c-0.004-0.039-0.043-0.563-0.051-0.602v-0.832c0.008-0.058,0.051-0.594,0.051-0.648c0.347-5.985,3.882-11.211,9.234-13.645
		l179.918-81.863c2.387-1.07,5.496-1.606,8.594-1.606c3.078,0,6.136,0.532,8.457,1.594l179.945,81.875
		c5.352,2.438,8.891,7.66,9.234,13.688c0.004,0.043,0.047,0.562,0.051,0.605l0.035,0.477l5.114-0.059L405.742,239.914z
		 M405.742,239.914"/>
</g>
</svg>
